<?xml version="1.0" standalone="no"?>
<!DOCTYPE svg PUBLIC "-//W3C//DTD SVG 20010904//EN"
 "http://www.w3.org/TR/2001/REC-SVG-20010904/DTD/svg10.dtd">
<svg version="1.0" xmlns="http://www.w3.org/2000/svg"
 width="200.000000pt" height="200.000000pt" viewBox="0 0 200.000000 200.000000"
 preserveAspectRatio="xMidYMid meet">
<metadata>
Created by potrace 1.14, written by Peter Selinger 2001-2017
</metadata>
<g transform="translate(0.000000,200.000000) scale(0.100000,-0.100000)"
fill="#000000" stroke="none">
<path d="M784 1748 c-115 -83 -324 -234 -464 -336 -140 -101 -259 -188 -263
-192 -8 -7 66 -245 274 -876 l80 -242 584 0 584 1 31 96 c93 288 275 846 297
911 14 41 26 83 27 92 1 11 -151 127 -468 357 -258 188 -470 341 -471 341 -1
0 -96 -68 -211 -152z m676 -226 c223 -162 412 -302 421 -311 16 -15 9 -40 -93
-351 -61 -184 -138 -420 -172 -525 l-62 -190 -560 -3 -560 -2 -36 112 c-20 62
-97 302 -172 532 -75 231 -133 422 -128 425 5 3 61 43 123 89 63 46 262 191
443 322 l329 239 31 -22 c17 -12 213 -154 436 -315z"/>
<path d="M950 1786 c-540 -392 -797 -580 -804 -586 -5 -5 2 -41 15 -82 12 -40
23 -75 24 -78 2 -10 207 -636 243 -745 l37 -110 120 -1 c136 0 145 1 140 24
-1 9 -6 62 -10 117 -3 55 -8 116 -10 135 -2 19 -7 76 -10 125 -3 50 -8 106
-10 125 -2 19 -7 73 -10 120 -3 47 -8 105 -10 130 -2 25 -7 79 -10 120 -4 41
-9 78 -10 81 -3 4 -162 -11 -193 -19 -4 -1 -7 -27 -7 -58 0 -54 -1 -56 -34
-70 -32 -13 -76 -13 -152 2 -25 5 -27 10 -34 71 -4 36 -3 69 2 73 6 6 255 60
578 124 11 2 121 25 245 51 124 25 264 53 312 62 l87 16 62 -46 c35 -26 61
-47 58 -48 -83 -14 -79 -7 -79 -114 0 -53 -4 -94 -8 -91 -4 2 -7 45 -7 95 0
68 -3 91 -12 91 -11 0 -291 -45 -413 -66 -19 -4 -44 -8 -55 -10 -115 -17 -181
-28 -185 -31 -6 -5 -7 -65 -15 -518 -8 -441 -8 -443 -6 -470 1 -20 7 -20 365
-20 201 0 367 2 369 5 3 3 59 174 126 380 67 206 140 431 163 498 22 68 36
127 32 131 -5 5 -184 135 -399 291 -214 156 -404 294 -420 306 l-30 23 -45
-33z m-20 -677 c0 -15 -5 -19 -15 -15 -18 6 -26 -9 -27 -50 -1 -64 2 -74 21
-74 24 0 32 -12 21 -29 -12 -20 -59 -5 -69 21 -4 12 -7 48 -5 81 1 45 7 64 20
74 28 20 54 16 54 -8z m88 -41 c2 -11 -3 -18 -12 -18 -11 0 -15 -13 -15 -56 0
-31 -2 -58 -5 -62 -12 -12 -19 10 -20 63 0 34 -5 56 -13 60 -19 7 -16 23 5 27
35 8 57 3 60 -14z m82 7 c7 -9 10 -38 8 -77 -3 -55 -6 -63 -23 -64 -58 -2 -77
58 -30 94 14 11 25 23 25 26 0 3 -11 6 -25 6 -26 0 -34 15 -12 23 23 10 45 7
57 -8z m50 -21 c0 -15 6 -24 16 -24 11 0 14 8 12 25 -2 13 0 24 5 25 4 0 11 0
15 0 6 0 8 -73 3 -137 -2 -27 -20 -11 -23 20 -2 17 -7 32 -13 32 -5 0 -11 -15
-13 -32 -3 -33 -16 -44 -24 -20 -4 10 -3 114 1 140 3 19 21 -6 21 -29z m157
-30 c1 -32 4 -72 5 -88 2 -17 -2 -31 -9 -33 -7 -3 -13 2 -13 11 0 10 -9 16
-25 16 -16 0 -25 -6 -25 -15 0 -8 -7 -15 -15 -15 -17 0 -22 56 -5 62 11 3 18
37 19 89 1 34 3 35 33 34 33 -2 33 -2 35 -61z m79 58 c14 -8 17 -28 15 -99 -1
-50 -2 -52 -28 -48 -16 2 -31 4 -35 4 -26 3 -6 87 23 96 23 8 15 25 -12 25
-19 0 -25 11 -12 23 8 9 35 9 49 -1z m112 -52 c4 -75 -4 -103 -28 -97 -16 4
-20 0 -20 -20 0 -15 -5 -23 -12 -21 -9 3 -14 34 -15 96 -3 87 -2 91 20 95 47
9 52 4 55 -53z m85 51 c13 -2 7 -31 -6 -31 -10 0 -14 -15 -13 -57 1 -37 -3
-58 -11 -60 -10 -4 -13 12 -13 55 0 44 -4 61 -15 66 -8 3 -15 11 -15 19 0 12
19 14 73 8z m-90 -218 c2 -35 4 -38 36 -41 l33 -3 -5 -57 c-4 -40 -11 -60 -23
-67 -30 -17 -62 -55 -73 -86 -8 -25 -7 -31 6 -36 8 -3 24 -1 34 5 16 10 17 9
10 -11 -10 -28 -59 -30 -75 -4 -9 14 -6 26 12 60 l23 42 -25 20 c-20 16 -25
31 -28 75 -3 53 -2 55 25 58 15 2 28 9 28 15 1 7 3 26 4 42 4 39 4 39 11 32 3
-3 7 -23 7 -44z m-565 -47 c3 -14 0 -17 -12 -13 -22 9 -28 -6 -28 -65 1 -51
13 -71 38 -61 9 3 11 -2 7 -16 -6 -25 -45 -28 -64 -5 -8 10 -13 43 -13 86 0
58 3 72 19 84 25 19 49 14 53 -10z m360 -3 c-8 -7 -22 -11 -31 -7 -26 10 -20
19 14 20 26 1 28 -1 17 -13z m-176 -41 c2 -8 1 -41 -2 -71 -4 -48 -8 -56 -25
-56 -11 0 -22 -8 -25 -19 -3 -11 -11 -21 -18 -24 -12 -4 -16 48 -12 141 2 38
1 38 -19 20 -16 -14 -21 -29 -21 -71 0 -39 -4 -52 -12 -49 -9 2 -13 24 -13 60
1 40 -3 57 -12 57 -7 0 -13 7 -13 15 0 11 17 15 73 17 85 4 95 2 99 -20z m80
11 c20 -18 25 -91 8 -124 -13 -23 -43 -25 -61 -3 -21 25 -17 113 6 130 24 18
25 18 47 -3z m76 -30 c22 62 38 47 37 -38 0 -53 -4 -75 -12 -75 -8 0 -13 14
-14 38 l0 37 -12 -35 c-20 -58 -42 -45 -43 25 0 33 4 69 10 80 9 17 12 14 16
-25 l5 -45 13 38z"/>
<path d="M1063 994 c-3 -8 -1 -20 6 -27 8 -8 11 -4 11 16 0 30 -7 35 -17 11z"/>
<path d="M1267 1053 c-11 -10 -8 -93 3 -93 6 0 10 23 10 50 0 51 -1 55 -13 43z"/>
<path d="M1357 990 c-3 -11 -2 -22 3 -25 4 -3 10 4 13 15 3 11 2 22 -3 25 -4
3 -10 -4 -13 -15z"/>
<path d="M1457 1054 c-11 -11 -8 -84 3 -84 6 0 10 3 11 8 0 4 2 16 3 28 3 27
-8 57 -17 48z"/>
<path d="M1060 721 c0 -50 16 -62 22 -17 4 39 0 56 -13 56 -5 0 -9 -18 -9 -39z"/>
<path d="M1159 763 c-6 -55 -6 -72 1 -84 15 -23 24 3 21 64 -1 23 -19 40 -22
20z"/>
</g>
</svg>
